# xmcd CD database file
#
# Track frame offsets:
#	150
#	12687
#	26815
#	37844
#	50786
#	66056
#
# Disc length: 1134 seconds
#
# Revision: 1
# Processed by: cddbd v1.5.1PL0 Copyright (c) Steve Scherf et al.
# Submitted via: CDex 1.50
#
DISCID=4e046c06
DTITLE=Jody Evans - Premonitions
DYEAR=2005
DGENRE=Country
TTITLE0=Sittin' Pretty
TTITLE1=Strawberry Wine
TTITLE2=(I Need Your Love Like It's) Going Out Of Style
TTITLE3=Hey Diary
TTITLE4=Chances
TTITLE5=Missouri Pacific
EXTD=YEAR: 2005
EXTT0=
EXTT1=
EXTT2=
EXTT3=
EXTT4=
EXTT5=
PLAYORDER=
